<svg width="512" height="512" viewBox="0 0 512 512" fill="none" xmlns="http://www.w3.org/2000/svg">
<path d="M129.276 387.87C129.276 418.086 96.7557 439.495 88.0406 410.564C86.7188 406.176 86 401.472 86 396.519V115.826C86 110.873 86.7188 106.168 88.0409 101.78C96.7562 72.8487 129.276 94.2579 129.276 124.473V387.87ZM147.276 81.3493C147.276 75.5024 152.936 71.3334 158 74.2568L164.684 78.1156C180.464 87.2258 190.185 104.062 190.185 122.283V390.061C190.185 408.282 180.464 425.118 164.685 434.228L158 438.088C152.937 441.011 147.276 436.842 147.276 430.995V81.3493ZM240.366 121.811C247.004 125.643 251.093 132.726 251.093 140.39V371.953C251.093 379.618 247.004 386.701 240.366 390.533C226.063 398.791 208.185 388.469 208.185 371.953V140.39C208.185 123.875 226.063 113.553 240.366 121.811ZM401.087 214.604C433.087 233.079 433.087 279.266 401.087 297.741L345.593 329.781C311.593 349.411 269.093 324.873 269.093 285.614V226.731C269.093 187.471 311.593 162.933 345.593 182.564L401.087 214.604Z" fill="#1DB954"/>
</svg>
